<?xml version="1.0" standalone="no"?>
<!DOCTYPE svg PUBLIC "-//W3C//DTD SVG 20010904//EN"
 "http://www.w3.org/TR/2001/REC-SVG-20010904/DTD/svg10.dtd">
<svg version="1.0" xmlns="http://www.w3.org/2000/svg"
 width="240.000000pt" height="240.000000pt" viewBox="0 0 240.000000 240.000000"
 preserveAspectRatio="xMidYMid meet">
<metadata>
Copyright Train Builder
</metadata><g><rect x="0" y="0" width="240" height="240" fill="#ffffff" />
<g transform="translate(0.000000,240.000000) scale(0.050000,-0.050000)"
fill="#000000" stroke="none">
<path d="M420 3960 l0 -420 420 0 420 0 0 420 0 420 -420 0 -420 0 0 -420z
m720 0 l0 -300 -300 0 -300 0 0 300 0 300 300 0 300 0 0 -300z"/>
<path d="M660 3960 l0 -180 180 0 180 0 0 180 0 180 -180 0 -180 0 0 -180z"/>
<path d="M1380 4320 l0 -60 60 0 60 0 0 -60 0 -60 -60 0 -60 0 0 -180 0 -180
60 0 60 0 0 60 0 60 120 0 120 0 0 -60 0 -60 -60 0 -60 0 0 -300 0 -300 -60 0
-60 0 0 -120 0 -120 -60 0 -60 0 0 60 0 60 -60 0 -60 0 0 60 0 60 -60 0 -60 0
0 60 0 60 60 0 60 0 0 60 0 60 -60 0 -60 0 0 -60 0 -60 -60 0 -60 0 0 -60 0
-60 60 0 60 0 0 -60 0 -60 -120 0 -120 0 0 180 0 180 -240 0 -240 0 0 -180 0
-180 120 0 120 0 0 -60 0 -60 -60 0 -60 0 0 -60 0 -60 -60 0 -60 0 0 -60 0
-60 120 0 120 0 0 -60 0 -60 120 0 120 0 0 -120 0 -120 60 0 60 0 0 60 0 60
60 0 60 0 0 -60 0 -60 60 0 60 0 0 60 0 60 60 0 60 0 0 60 0 60 -60 0 -60 0 0
60 0 60 -120 0 -120 0 0 -60 0 -60 -60 0 -60 0 0 120 0 120 60 0 60 0 0 60 0
60 60 0 60 0 0 -60 0 -60 60 0 60 0 0 60 0 60 60 0 60 0 0 -120 0 -120 60 0
60 0 0 -120 0 -120 180 0 180 0 0 -60 0 -60 60 0 60 0 0 -60 0 -60 60 0 60 0
0 -120 0 -120 120 0 120 0 0 -120 0 -120 60 0 60 0 0 120 0 120 60 0 60 0 0
-60 0 -60 60 0 60 0 0 -60 0 -60 60 0 60 0 0 -60 0 -60 -60 0 -60 0 0 -60 0
-60 60 0 60 0 0 -60 0 -60 -60 0 -60 0 0 -60 0 -60 -60 0 -60 0 0 120 0 120
-60 0 -60 0 0 60 0 60 -120 0 -120 0 0 -60 0 -60 -60 0 -60 0 0 180 0 180 -60
0 -60 0 0 -120 0 -120 -120 0 -120 0 0 -60 0 -60 -120 0 -120 0 0 60 0 60 60
0 60 0 0 60 0 60 60 0 60 0 0 60 0 60 -240 0 -240 0 0 60 0 60 -60 0 -60 0 0
60 0 60 60 0 60 0 0 60 0 60 -60 0 -60 0 0 -60 0 -60 -120 0 -120 0 0 60 0 60
-120 0 -120 0 0 60 0 60 -60 0 -60 0 0 120 0 120 -60 0 -60 0 0 -120 0 -120
60 0 60 0 0 -60 0 -60 -60 0 -60 0 0 -60 0 -60 240 0 240 0 0 -60 0 -60 120 0
120 0 0 -60 0 -60 60 0 60 0 0 -60 0 -60 -120 0 -120 0 0 -120 0 -120 -60 0
-60 0 0 60 0 60 -180 0 -180 0 0 -60 0 -60 -60 0 -60 0 0 -60 0 -60 60 0 60 0
0 60 0 60 60 0 60 0 0 -60 0 -60 180 0 180 0 0 60 0 60 60 0 60 0 0 -60 0 -60
120 0 120 0 0 -60 0 -60 120 0 120 0 0 -60 0 -60 -60 0 -60 0 0 -60 0 -60 60
0 60 0 0 60 0 60 60 0 60 0 0 60 0 60 60 0 60 0 0 60 0 60 60 0 60 0 0 -120 0
-120 60 0 60 0 0 60 0 60 240 0 240 0 0 -60 0 -60 120 0 120 0 0 120 0 120 60
0 60 0 0 60 0 60 -60 0 -60 0 0 60 0 60 120 0 120 0 0 -180 0 -180 -60 0 -60
0 0 -180 0 -180 -60 0 -60 0 0 -180 0 -180 -60 0 -60 0 0 240 0 240 -60 0 -60
0 0 -120 0 -120 -120 0 -120 0 0 60 0 60 60 0 60 0 0 120 0 120 -120 0 -120 0
0 -60 0 -60 60 0 60 0 0 -60 0 -60 -120 0 -120 0 0 60 0 60 -60 0 -60 0 0 -60
0 -60 -180 0 -180 0 0 -60 0 -60 240 0 240 0 0 -180 0 -180 360 0 360 0 0 60
0 60 60 0 60 0 0 -60 0 -60 60 0 60 0 0 60 0 60 -60 0 -60 0 0 120 0 120 60 0
60 0 0 -60 0 -60 60 0 60 0 0 -60 0 -60 120 0 120 0 0 60 0 60 60 0 60 0 0
-120 0 -120 60 0 60 0 0 180 0 180 -120 0 -120 0 0 60 0 60 240 0 240 0 0 60
0 60 60 0 60 0 0 -60 0 -60 60 0 60 0 0 -60 0 -60 -60 0 -60 0 0 -60 0 -60
120 0 120 0 0 -60 0 -60 60 0 60 0 0 60 0 60 -60 0 -60 0 0 120 0 120 60 0 60
0 0 60 0 60 -60 0 -60 0 0 60 0 60 -120 0 -120 0 0 120 0 120 120 0 120 0 0
60 0 60 60 0 60 0 0 300 0 300 -60 0 -60 0 0 60 0 60 60 0 60 0 0 60 0 60 -60
0 -60 0 0 60 0 60 -60 0 -60 0 0 180 0 180 60 0 60 0 0 60 0 60 -60 0 -60 0 0
-60 0 -60 -60 0 -60 0 0 -60 0 -60 -60 0 -60 0 0 -60 0 -60 60 0 60 0 0 -60 0
-60 -120 0 -120 0 0 180 0 180 60 0 60 0 0 120 0 120 120 0 120 0 0 60 0 60
60 0 60 0 0 -60 0 -60 60 0 60 0 0 180 0 180 -60 0 -60 0 0 -60 0 -60 -60 0
-60 0 0 60 0 60 -180 0 -180 0 0 -60 0 -60 180 0 180 0 0 -60 0 -60 -120 0
-120 0 0 -60 0 -60 -60 0 -60 0 0 60 0 60 -60 0 -60 0 0 60 0 60 -60 0 -60 0
0 60 0 60 -60 0 -60 0 0 120 0 120 -60 0 -60 0 0 -120 0 -120 -60 0 -60 0 0
180 0 180 120 0 120 0 0 120 0 120 -60 0 -60 0 0 180 0 180 -360 0 -360 0 0
-60 0 -60 -60 0 -60 0 0 60 0 60 -60 0 -60 0 0 -60 0 -60 60 0 60 0 0 -60 0
-60 60 0 60 0 0 -60 0 -60 -60 0 -60 0 0 -60 0 -60 60 0 60 0 0 60 0 60 120 0
120 0 0 -60 0 -60 -60 0 -60 0 0 -60 0 -60 -120 0 -120 0 0 -60 0 -60 -60 0
-60 0 0 -60 0 -60 -60 0 -60 0 0 120 0 120 60 0 60 0 0 60 0 60 -60 0 -60 0 0
60 0 60 60 0 60 0 0 60 0 60 -60 0 -60 0 0 120 0 120 -60 0 -60 0 0 -60 0 -60
-60 0 -60 0 0 60 0 60 -60 0 -60 0 0 -60 0 -60 -60 0 -60 0 0 60 0 60 -60 0
-60 0 0 -60 0 -60 -60 0 -60 0 0 60 0 60 -60 0 -60 0 0 -60z m1440 -120 l0
-60 -60 0 -60 0 0 60 0 60 60 0 60 0 0 -60z m240 0 l0 -60 60 0 60 0 0 -60 0
-60 60 0 60 0 0 -60 0 -60 -60 0 -60 0 0 -60 0 -60 -60 0 -60 0 0 -180 0 -180
60 0 60 0 0 -120 0 -120 -60 0 -60 0 0 -180 0 -180 120 0 120 0 0 -180 0 -180
60 0 60 0 0 -60 0 -60 -60 0 -60 0 0 60 0 60 -120 0 -120 0 0 60 0 60 -60 0
-60 0 0 -60 0 -60 -60 0 -60 0 0 -60 0 -60 -60 0 -60 0 0 -60 0 -60 60 0 60 0
0 -60 0 -60 120 0 120 0 0 -60 0 -60 60 0 60 0 0 120 0 120 60 0 60 0 0 -60 0
-60 60 0 60 0 0 -60 0 -60 60 0 60 0 0 60 0 60 60 0 60 0 0 60 0 60 120 0 120
0 0 -60 0 -60 -60 0 -60 0 0 -60 0 -60 120 0 120 0 0 120 0 120 60 0 60 0 0
-120 0 -120 -60 0 -60 0 0 -60 0 -60 120 0 120 0 0 -60 0 -60 -120 0 -120 0 0
-60 0 -60 60 0 60 0 0 -60 0 -60 -60 0 -60 0 0 -60 0 -60 -60 0 -60 0 0 60 0
60 -60 0 -60 0 0 60 0 60 -120 0 -120 0 0 60 0 60 -60 0 -60 0 0 -60 0 -60
-60 0 -60 0 0 -240 0 -240 -60 0 -60 0 0 240 0 240 -60 0 -60 0 0 60 0 60 60
0 60 0 0 -60 0 -60 60 0 60 0 0 120 0 120 -120 0 -120 0 0 60 0 60 -60 0 -60
0 0 -120 0 -120 -60 0 -60 0 0 60 0 60 -60 0 -60 0 0 60 0 60 60 0 60 0 0 60
0 60 -120 0 -120 0 0 120 0 120 -60 0 -60 0 0 -60 0 -60 -60 0 -60 0 0 60 0
60 -120 0 -120 0 0 60 0 60 -120 0 -120 0 0 120 0 120 60 0 60 0 0 60 0 60
120 0 120 0 0 -60 0 -60 120 0 120 0 0 -60 0 -60 60 0 60 0 0 60 0 60 60 0 60
0 0 -120 0 -120 60 0 60 0 0 60 0 60 60 0 60 0 0 60 0 60 -60 0 -60 0 0 120 0
120 -60 0 -60 0 0 -60 0 -60 -60 0 -60 0 0 60 0 60 -60 0 -60 0 0 60 0 60 120
0 120 0 0 60 0 60 -180 0 -180 0 0 -60 0 -60 -60 0 -60 0 0 60 0 60 -60 0 -60
0 0 -60 0 -60 -60 0 -60 0 0 -60 0 -60 -60 0 -60 0 0 -60 0 -60 -60 0 -60 0 0
-120 0 -120 -60 0 -60 0 0 60 0 60 -60 0 -60 0 0 60 0 60 120 0 120 0 0 120 0
120 120 0 120 0 0 300 0 300 -60 0 -60 0 0 -120 0 -120 -60 0 -60 0 0 120 0
120 60 0 60 0 0 60 0 60 60 0 60 0 0 60 0 60 120 0 120 0 0 -60 0 -60 -120 0
-120 0 0 -60 0 -60 60 0 60 0 0 -180 0 -180 300 0 300 0 0 60 0 60 -60 0 -60
0 0 60 0 60 -60 0 -60 0 0 60 0 60 60 0 60 0 0 -60 0 -60 60 0 60 0 0 60 0 60
60 0 60 0 0 120 0 120 60 0 60 0 0 180 0 180 60 0 60 0 0 -60z m-1080 -120 l0
-60 -60 0 -60 0 0 -60 0 -60 -60 0 -60 0 0 120 0 120 120 0 120 0 0 -60z
m1440 -780 l0 -120 -60 0 -60 0 0 120 0 120 60 0 60 0 0 -120z m-2760 -60 l0
-60 -60 0 -60 0 0 60 0 60 60 0 60 0 0 -60z m1200 0 l0 -60 -60 0 -60 0 0 60
0 60 60 0 60 0 0 -60z m-960 -300 l0 -120 -60 0 -60 0 0 120 0 120 60 0 60 0
0 -120z m360 60 l0 -60 -60 0 -60 0 0 60 0 60 60 0 60 0 0 -60z m2160 0 l0
-60 -120 0 -120 0 0 60 0 60 120 0 120 0 0 -60z m360 0 l0 -60 -60 0 -60 0 0
-120 0 -120 -120 0 -120 0 0 60 0 60 60 0 60 0 0 120 0 120 120 0 120 0 0 -60z
m-2520 -480 l0 -60 -60 0 -60 0 0 60 0 60 60 0 60 0 0 -60z m2400 0 l0 -60 60
0 60 0 0 -60 0 -60 -60 0 -60 0 0 60 0 60 -60 0 -60 0 0 60 0 60 60 0 60 0 0
-60z m-600 -240 l0 -60 -60 0 -60 0 0 60 0 60 60 0 60 0 0 -60z m-600 -240 l0
-60 -60 0 -60 0 0 60 0 60 60 0 60 0 0 -60z m-1080 -420 l0 -120 -120 0 -120
0 0 60 0 60 60 0 60 0 0 60 0 60 60 0 60 0 0 -120z m2400 -420 l0 -180 -180 0
-180 0 0 180 0 180 180 0 180 0 0 -180z m-600 -240 l0 -60 -60 0 -60 0 0 60 0
60 60 0 60 0 0 -60z m240 -240 l0 -60 -60 0 -60 0 0 60 0 60 60 0 60 0 0 -60z"/>
<path d="M3060 3960 l0 -60 -60 0 -60 0 0 -60 0 -60 60 0 60 0 0 60 0 60 60 0
60 0 0 60 0 60 -60 0 -60 0 0 -60z"/>
<path d="M2820 3600 l0 -60 -60 0 -60 0 0 -60 0 -60 60 0 60 0 0 60 0 60 60 0
60 0 0 60 0 60 -60 0 -60 0 0 -60z"/>
<path d="M2940 3360 l0 -60 -120 0 -120 0 0 -60 0 -60 120 0 120 0 0 60 0 60
60 0 60 0 0 60 0 60 -60 0 -60 0 0 -60z"/>
<path d="M2820 3000 l0 -60 60 0 60 0 0 60 0 60 -60 0 -60 0 0 -60z"/>
<path d="M2220 2520 l0 -60 120 0 120 0 0 60 0 60 -120 0 -120 0 0 -60z"/>
<path d="M3300 1920 l0 -60 60 0 60 0 0 60 0 60 -60 0 -60 0 0 -60z"/>
<path d="M3540 1800 l0 -60 60 0 60 0 0 60 0 60 -60 0 -60 0 0 -60z"/>
<path d="M3900 1800 l0 -60 60 0 60 0 0 60 0 60 -60 0 -60 0 0 -60z"/>
<path d="M3900 1560 l0 -60 60 0 60 0 0 60 0 60 -60 0 -60 0 0 -60z"/>
<path d="M3540 1200 l0 -60 60 0 60 0 0 60 0 60 -60 0 -60 0 0 -60z"/>
<path d="M3540 3960 l0 -420 420 0 420 0 0 420 0 420 -420 0 -420 0 0 -420z
m720 0 l0 -300 -300 0 -300 0 0 300 0 300 300 0 300 0 0 -300z"/>
<path d="M3780 3960 l0 -180 180 0 180 0 0 180 0 180 -180 0 -180 0 0 -180z"/>
<path d="M1380 3600 l0 -60 60 0 60 0 0 60 0 60 -60 0 -60 0 0 -60z"/>
<path d="M1380 3360 l0 -60 60 0 60 0 0 60 0 60 -60 0 -60 0 0 -60z"/>
<path d="M1500 2280 l0 -60 60 0 60 0 0 60 0 60 -60 0 -60 0 0 -60z"/>
<path d="M1380 2040 l0 -60 120 0 120 0 0 60 0 60 -120 0 -120 0 0 -60z"/>
<path d="M1740 2040 l0 -60 60 0 60 0 0 60 0 60 -60 0 -60 0 0 -60z"/>
<path d="M540 1920 l0 -60 -60 0 -60 0 0 -60 0 -60 180 0 180 0 0 120 0 120
-120 0 -120 0 0 -60z"/>
<path d="M420 840 l0 -420 420 0 420 0 0 420 0 420 -420 0 -420 0 0 -420z
m720 0 l0 -300 -300 0 -300 0 0 300 0 300 300 0 300 0 0 -300z"/>
<path d="M660 840 l0 -180 180 0 180 0 0 180 0 180 -180 0 -180 0 0 -180z"/>
<path d="M1380 660 l0 -240 60 0 60 0 0 60 0 60 120 0 120 0 0 -60 0 -60 60 0
60 0 0 60 0 60 60 0 60 0 0 60 0 60 -240 0 -240 0 0 120 0 120 -60 0 -60 0 0
-240z"/>
<path d="M3780 480 l0 -60 180 0 180 0 0 60 0 60 -180 0 -180 0 0 -60z"/>
</g>
</g></svg>
